<svg xmlns="http://www.w3.org/2000/svg" viewBox="0 0 810 810">
    <path fill="#f97316" d="M 713.261719 200.574219 L 663.046875 84.769531 L 562.816406 161.496094 L 606.855469 172.933594 C 533.097656 329.179688 390.917969 451.546875 221.917969 492.035156 C 181.898438 501.96875 140.628906 508.59375 99.300781 508.574219 C 97.195312 508.449219 96.726562 512.054688 99.078125 512.21875 C 127.847656 515.101562 156.75 514.320312 185.53125 511.921875 C 391.339844 496.019531 572.613281 368.066406 673.113281 190.144531 Z M 583.371094 345.46875 L 583.371094 687.253906 L 677.324219 687.253906 L 677.324219 225.722656 C 649.566406 269.492188 619.058594 308.8125 583.371094 345.46875 Z M 469.519531 438.382812 L 469.519531 687.253906 L 563.472656 687.253906 L 563.472656 365.03125 C 550.207031 377.523438 536.136719 389.714844 521.46875 401.410156 C 505.042969 414.324219 487.394531 427.070312 469.519531 438.382812 Z M 355.664062 495.53125 L 355.664062 687.253906 L 449.621094 687.253906 L 449.621094 450.585938 C 420.230469 467.855469 387.875 483.363281 355.664062 495.53125 Z M 241.816406 526.789062 L 241.816406 687.253906 L 335.769531 687.253906 L 335.769531 502.660156 C 305.300781 513.070312 273.421875 521.242188 241.816406 526.789062 Z M 221.917969 529.972656 L 221.917969 687.253906 L 127.960938 687.253906 L 127.960938 536.039062 C 159.035156 536.65625 190.898438 534.425781 221.917969 529.972656"/>
</svg>
